static_grf.mot
version=1
nRows=30
nColumns 19
inDegrees=yes
endheader
time	1_ground_force_vx	1_ground_force_vy	1_ground_force_vz	1_ground_force_px	1_ground_force_py	1_ground_force_pz	1_ground_torque_x	1_ground_torque_y	1_ground_torque_z	2_ground_force_vx	2_ground_force_vy	2_ground_force_vz	2_ground_force_px	2_ground_force_py	2_ground_force_pz	2_ground_torque_x	2_ground_torque_y	2_ground_torque_z
            1.471500	           -2.154903	          284.347805	          -14.917199	           -0.243291	            0.006257	           -0.413780	           -0.009303	            1.227557	           -0.064399	           -0.109881	          266.038817	           17.373928	           -0.252693	            0.005509	           -0.680191	            0.000294	           -0.710917	           -0.046427
            1.472000	           -2.200308	          285.067875	          -14.684714	           -0.242822	            0.006257	           -0.413608	           -0.009204	            1.192425	           -0.061425	           -0.253630	          266.958009	           17.658841	           -0.252561	            0.005513	           -0.681070	            0.000631	           -0.663925	           -0.043918
            1.472500	           -2.246475	          284.347590	          -14.871116	           -0.242847	            0.006257	           -0.413577	           -0.009527	            1.205836	           -0.063064	           -0.249725	          265.853834	           17.467187	           -0.252576	            0.005510	           -0.680366	            0.000621	           -0.660861	           -0.043420
            1.473000	           -2.201560	          285.070038	          -15.189129	           -0.242820	            0.006257	           -0.413749	           -0.009029	            1.169090	           -0.062292	           -0.016161	          266.038988	           17.420816	           -0.252834	            0.005508	           -0.680192	            0.000043	           -0.709681	           -0.046471
            1.473500	           -2.246753	          285.249085	          -14.913107	           -0.243087	            0.006256	           -0.413542	           -0.009241	            1.173241	           -0.061338	           -0.204122	          266.221615	           17.656193	           -0.252542	            0.005510	           -0.680437	            0.000522	           -0.680680	           -0.045144
            1.474000	           -2.338586	          285.429560	          -14.957962	           -0.243294	            0.006256	           -0.413449	           -0.009526	            1.162703	           -0.060932	           -0.157937	          266.405925	           17.656831	           -0.252960	            0.005509	           -0.680614	            0.000384	           -0.647451	           -0.042912
            1.474500	           -2.246621	          284.528022	          -14.916199	           -0.243113	            0.006256	           -0.413547	           -0.009194	            1.164398	           -0.061043	           -0.206095	          266.773870	           17.705093	           -0.252794	            0.005510	           -0.680543	            0.000486	           -0.629080	           -0.041750
            1.475000	           -2.017586	          284.888794	          -14.961078	           -0.242918	            0.006257	           -0.413616	           -0.008811	            1.244128	           -0.065336	           -0.159910	          266.958180	           17.705730	           -0.252636	            0.005512	           -0.680930	            0.000385	           -0.642740	           -0.042629
            1.475500	           -2.200862	          285.609428	          -14.865819	           -0.243071	            0.006255	           -0.413268	           -0.008953	            1.161897	           -0.060476	           -0.250951	          266.221278	           17.703141	           -0.252554	            0.005510	           -0.680225	            0.000592	           -0.627554	           -0.041731
            1.476000	           -2.200910	          285.249094	          -14.913221	           -0.243013	            0.006256	           -0.413344	           -0.009103	            1.179732	           -0.061678	           -0.251780	          266.406758	           17.328374	           -0.252677	            0.005509	           -0.680119	            0.000624	           -0.659831	           -0.042919
            1.476500	           -2.429897	          285.248656	          -14.820940	           -0.243050	            0.006256	           -0.413333	           -0.009974	            1.170916	           -0.060838	           -0.202793	          265.853334	           17.654879	           -0.252938	            0.005507	           -0.679942	            0.000474	           -0.621516	           -0.041274
            1.477000	           -2.337837	          285.067849	          -14.684373	           -0.243042	            0.006256	           -0.413346	           -0.009710	            1.183948	           -0.060987	           -0.062284	          265.854176	           17.560963	           -0.252998	            0.005508	           -0.680226	            0.000157	           -0.670276	           -0.044275
            1.477500	           -2.292824	          285.249469	          -15.004705	           -0.243026	            0.006256	           -0.413359	           -0.009449	            1.175520	           -0.061835	            0.077765	          266.037485	           17.936985	           -0.252983	            0.005509	           -0.680545	           -0.000193	           -0.661227	           -0.044582
            1.478000	           -2.246151	          285.067867	          -14.684600	           -0.242969	            0.006257	           -0.413607	           -0.009065	            1.150512	           -0.059266	           -0.109093	          265.853672	           17.654839	           -0.252568	            0.005510	           -0.680367	            0.000282	           -0.686087	           -0.045562
            1.478500	           -2.108508	          285.067696	          -14.639086	           -0.243202	            0.006256	           -0.413402	           -0.008904	            1.203745	           -0.061816	           -0.299110	          266.589223	           17.751404	           -0.253223	            0.005509	           -0.680859	            0.000752	           -0.669937	           -0.044609
            1.479000	           -2.292219	          283.806754	          -14.873321	           -0.242944	            0.006257	           -0.413680	           -0.009467	            1.172168	           -0.061429	           -0.159972	          266.958682	           17.564945	           -0.252715	            0.005511	           -0.680789	            0.000367	           -0.612940	           -0.040329
            1.479500	           -2.430580	          285.249836	          -15.096076	           -0.242980	            0.006256	           -0.413375	           -0.009989	            1.172324	           -0.062042	           -0.253027	          266.774370	           17.517400	           -0.252513	            0.005511	           -0.680683	            0.000600	           -0.632191	           -0.041512
            1.480000	           -2.384282	          285.249058	          -14.912766	           -0.242907	            0.006256	           -0.413479	           -0.009910	            1.185663	           -0.061986	           -0.111710	          266.589900	           17.751324	           -0.252655	            0.005511	           -0.680861	            0.000285	           -0.679577	           -0.045251
            1.480500	           -2.246801	          284.888750	          -14.960509	           -0.243431	            0.006257	           -0.413616	           -0.009153	            1.160597	           -0.060947	           -0.344048	          266.037302	           17.561740	           -0.253065	            0.005508	           -0.680400	            0.000812	           -0.628152	           -0.041466
            1.481000	           -2.154609	          283.986880	          -14.827033	           -0.243048	            0.006259	           -0.414100	           -0.009061	            1.194329	           -0.062356	           -0.578277	          266.036288	           17.608768	           -0.253348	            0.005508	           -0.680468	            0.001361	           -0.626279	           -0.041453
            1.481500	           -2.338472	          285.429363	          -14.912106	           -0.242959	            0.006257	           -0.413575	           -0.009779	            1.193545	           -0.062356	           -0.251595	          266.405252	           17.750727	           -0.252949	            0.005510	           -0.680613	            0.000653	           -0.691571	           -0.046080
            1.482000	           -2.246523	          283.987256	          -14.918518	           -0.243403	            0.006257	           -0.413716	           -0.008953	            1.131724	           -0.059452	           -0.392810	          266.588885	           17.751443	           -0.252871	            0.005509	           -0.680506	            0.000972	           -0.659376	           -0.043906
            1.482500	           -2.292644	          284.888741	          -14.960395	           -0.243168	            0.006256	           -0.413355	           -0.009549	            1.186638	           -0.062314	           -0.113183	          266.959353	           17.424141	           -0.252983	            0.005510	           -0.680861	            0.000288	           -0.678286	           -0.044271
            1.483000	           -2.246589	          284.347787	          -14.916972	           -0.243311	            0.006259	           -0.414045	           -0.009509	            1.203481	           -0.063135	           -0.019442	          266.959357	           17.517958	           -0.252974	            0.005510	           -0.680792	            0.000052	           -0.713363	           -0.046811
            1.483500	           -2.200958	          284.888759	          -14.960623	           -0.243016	            0.006258	           -0.413816	           -0.009467	            1.225437	           -0.064353	           -0.253651	          266.958176	           17.611913	           -0.252561	            0.005511	           -0.680648	            0.000630	           -0.663278	           -0.043758
            1.484000	           -2.338568	          284.708694	          -15.006910	           -0.242930	            0.006257	           -0.413659	           -0.009198	            1.119795	           -0.059024	           -0.108510	          265.670140	           17.466470	           -0.252516	            0.005509	           -0.679907	            0.000275	           -0.672354	           -0.044204
            1.484500	           -2.109206	          284.528245	          -14.962396	           -0.243283	            0.006258	           -0.414015	           -0.008947	            1.206924	           -0.063468	           -0.295081	          265.483983	           17.841317	           -0.253102	            0.005507	           -0.680082	            0.000714	           -0.642026	           -0.043146
            1.485000	           -2.292677	          285.069037	          -14.959622	           -0.243362	            0.006256	           -0.413517	           -0.009491	            1.180160	           -0.061931	           -0.204163	          266.221950	           17.562337	           -0.252840	            0.005508	           -0.680154	            0.000474	           -0.617796	           -0.040755
            1.485500	           -2.384118	          284.347760	          -14.916630	           -0.243073	            0.006257	           -0.413650	           -0.009805	            1.169439	           -0.061348	           -0.206801	          266.958345	           17.611893	           -0.252714	            0.005511	           -0.680859	            0.000477	           -0.616119	           -0.040647
            1.486000	           -2.247176	          285.069636	          -15.097303	           -0.243031	            0.006255	           -0.413208	           -0.008970	            1.137846	           -0.060260	           -0.157210	          266.221282	           17.796958	           -0.253109	            0.005508	           -0.680226	            0.000397	           -0.672080	           -0.044929
